<?xml version="1.0" encoding="iso-8859-1"?>
<!DOCTYPE svg PUBLIC "-//W3C//DTD SVG 1.0//EN" "http://www.w3.org/TR/2001/REC-SVG-20010904/DTD/svg10.dtd">
<!-- Creator: CorelDRAW -->
<svg xmlns="http://www.w3.org/2000/svg" xmlns:odm="http://product.corel.com/CGS/11/cddns/" xml:space="preserve" width="8.26772in" height="11.6929in" style="shape-rendering:geometricPrecision; text-rendering:geometricPrecision; image-rendering:optimizeQuality; fill-rule:evenodd"
     viewBox="0 0 8268 11692">
 <defs>
  <style type="text/css">
   <![CDATA[
    .str0 {stroke:#FFFFFF;stroke-width:28}
    .fil2 {fill:none}
    .fil1 {fill:#009A3D}
    .fil0 {fill:#F3BE00}
   ]]>
  </style>
 </defs>
 <g id="Camada 1">
  <defs>
   <clipPath id="id0">
    <rect x="-399241" y="764104" width="812456" height="-806656"/>
   </clipPath>
  </defs>
  <g style="clip-path:url(#id0)">
   <path id="Embedding 25" class="fil0" d="M4344 3585l-11 -6 -11 -7 -21 -12 -43 -27 -11 13 -12 12 -12 13 -11 12 -24 24 -23 25 -6 5 -3 3 -3 3 -12 12 -24 23 -24 23 -24 23 -26 22 -24 22 -26 21 -25 22 -26 21 -26 21 -13 10 -13 10 -26 20 -3 12 -3 12 -6 23 -11 47 -6 22 -6 23 -4 11 -3 11 -6 23 -7 22 -7 22 -4 11 -3 11 -8 22 -15 42 -8 21 -7 21 -17 41 -9 20 -8 21 -9 19 -9 21 -9 19 -9 19 -10 19 -10 20 -19 37 -21 37 -10 18 -11 18 -11 18 -11 17 -22 35 -12 17 -6 8 -6 8 -12 17 -12 17 -12 16 -7 8 -6 8 -25 32 -13 15 -13 16 -14 15 -6 7 -6 8 -28 29 -15 14 -7 8 -6 7 -8 7 -7 7 -14 14 -30 27 -8 7 -7 6 -15 14 -31 26 -31 25 -8 6 -8 6 -16 12 109 122 40 -4 40 -3 39 -4 39 -1 39 -2 39 -2 38 0 39 0 38 0 38 1 37 2 38 2 37 2 38 4 36 4 37 5 36 4 36 6 36 5 36 7 36 7 35 8 35 8 36 9 34 9 35 11 34 10 34 11 33 12 34 12 34 13 33 13 41 -51 41 -50 42 -49 42 -48 43 -48 43 -46 43 -45 45 -43 44 -44 45 -41 45 -41 46 -40 46 -39 46 -38 47 -37 48 -35 7 -42 8 -41 3 -21 5 -20 11 -41 11 -42 12 -41 14 -41 16 -41 15 -42 18 -41 18 -41 20 -41 21 -42 22 -41 23 -41 25 -41 -33 -38 -32 -37 -62 -76 -29 6 -29 6 -30 5 -15 2 -7 0 -7 2 -31 2 -31 1 -15 0 -16 0 -16 0 -15 0 -32 -2 -16 -2 -16 -1 -17 -2 -4 -1 -4 -1 -8 0 -16 -3 -16 -2 -17 -3 -17 -3 -9 -2 -8 -2 -16 -4 -18 -4 -8 -2 -5 -1 -4 -1 -17 -5 -9 -2 -4 -1 -4 -1 -27 -8 -26 -8 -27 -9 -27 -9 -27 -10 -27 -11 -26 -11 -27 -11 -28 -13 -26 -13 -27 -13 -27 -14 -27 -16 -27 -15 -7 -4 -7 -4 -13 -8 -27 -17z"/>
   <path id="Embedding 25" class="fil1" d="M4260 3531l21 14 21 14 42 26 27 17 13 8 7 4 7 4 27 15 27 16 27 14 27 13 26 13 28 13 27 11 26 11 27 11 27 10 27 9 27 9 26 8 27 8 32 7 15 4 8 1 4 1 4 1 32 6 32 6 32 4 31 4 32 2 16 1 7 0 9 1 15 0 16 0 31 0 32 -1 31 -1 31 -4 31 -3 32 -5 31 -5 -59 -75 -56 -75 -55 -75 -27 -38 -25 -38 -19 -28 -18 -28 -36 -55 -34 -55 -17 -28 -16 -28 -21 -34 -19 -35 -39 -69 -18 -35 -19 -34 -17 -35 -17 -35 -29 -59 -14 -30 -13 -30 -33 60 -33 59 -11 18 -10 18 -22 36 -22 35 -11 17 -5 9 -2 2 -1 2 -2 5 -4 4 -1 2 -1 2 -6 9 -11 17 -22 34 -12 17 -3 4 -2 2 -1 2 -6 9 -22 33 -11 14 -6 7 -1 2 -2 2 -2 4 -21 29 -11 13 -11 15 -11 13 -11 15 -11 13 -11 14 -22 27 -23 27 -22 27 -31 34z"/>
   <path id="Embedding 25" class="fil1" d="M2604 4402l569 633 16 -12 8 -6 8 -6 31 -25 31 -26 15 -14 7 -6 8 -7 30 -27 14 -14 7 -7 8 -7 6 -7 7 -8 15 -14 28 -29 6 -8 6 -7 14 -15 13 -16 13 -15 25 -32 6 -8 7 -8 12 -16 12 -17 12 -17 6 -8 6 -8 12 -17 22 -35 11 -17 11 -18 11 -18 10 -18 21 -37 19 -37 10 -20 10 -19 9 -19 9 -19 9 -21 9 -19 8 -21 9 -20 17 -41 7 -21 8 -21 15 -42 8 -22 3 -11 4 -11 7 -22 7 -22 6 -23 3 -11 4 -11 6 -23 6 -22 11 -47 6 -23 3 -12 3 -12 -34 24 -34 24 -34 24 -35 22 -36 22 -35 22 -18 10 -9 5 -9 6 -18 10 -9 5 -9 6 -37 20 -36 19 -38 19 -19 9 -18 10 -19 8 -19 9 -38 18 -39 16 -39 17 -11 3 -9 4 -20 8 -40 15 -20 7 -11 4 -9 4 -41 14 -41 13 -21 6 -21 7 -21 6 -21 6 -42 13 -42 11 -12 2 -10 3 -21 5 -44 10 -43 10 -44 9 -44 9 -45 8 -45 7z"/>
   <path id="Embedding 25" class="fil1" d="M5357 4475l49 -31 51 -29 64 -37 65 -34 66 -33 67 -31 -41 -41 -41 -41 -40 -40 -39 -41 -77 -83 -38 -42 -36 -41 -25 41 -23 41 -22 41 -21 42 -20 41 -18 41 -18 41 -15 42 -16 41 -14 41 -12 41 -11 42 -11 41 -5 20 -3 21 -8 41 -7 42 49 -36 49 -34 50 -34 51 -32z"/>
   <path id="Embedding 25" class="fil1" d="M4046 5913l45 -78 47 -77 48 -76 48 -73 26 -40 27 -39 54 -76 54 -75 28 -37 28 -36 -33 -13 -34 -13 -34 -12 -33 -12 -34 -11 -34 -10 -35 -11 -34 -9 -36 -9 -35 -8 -35 -8 -36 -7 -36 -7 -36 -5 -36 -6 -36 -4 -37 -5 -36 -4 -38 -4 -37 -2 -38 -2 -37 -2 -38 -1 -38 0 -39 0 -38 0 -39 2 -39 2 -39 1 -39 4 -40 3 -40 4 732 815 32 -59z"/>
   <path id="Embedding 25" class="fil2 str0" d="M5407 3951l-25 41 -23 41 -22 41 -21 42 -20 41 -18 41 -18 41 -15 42 -16 41 -14 41 -12 41 -11 42 -11 41 -5 20 -3 21 -8 41 -7 42"/>
   <path id="Embedding 25" class="fil2 str0" d="M4250 3529l10 2 21 14 21 14 42 26 27 17 13 8 7 4 7 4 27 15 27 16 27 14 27 13 26 13 28 13 27 11 26 11 27 11 27 10 27 9 27 9 26 8 27 8 32 7 15 4 8 1 4 1 4 1 32 6 32 6 32 4 31 4 32 2 16 1 7 0 9 1 15 0 16 0 31 0 32 -1 31 -1 31 -4 31 -3 32 -5 31 -5"/>
  </g>
  <g>
   <path id="Embedding 25" class="fil2" d="M2576 2852l3171 0 0 3148 -3171 0 0 -3148z"/>
  </g>
 </g>
</svg>
